# xmcd
#
# Track frame offsets:
#	150
#	14124
#	24931
#	37666
#	57310
#	71688
#	84676
#	96447
#	117856
#	139258
#	157014
#	167594
#	180100
#	192139
#	208962
#	221653
#	236678
#	259215
#
# Disc length: 3672 seconds
#
# Revision: 0
# Processed by: cddbd v1.4PL0 Copyright (c) Steve Scherf et al.
# Submitted via: dBpowerAMP V4.0
#
DISCID=000e5612
DTITLE=Johnny Winter - Johnny Winter
DYEAR=1900
DGENRE=Blues
TTITLE0=Golden days of rock 'n' roll
TTITLE1=Out of sight
TTITLE2=Rock 'n' roll people
TTITLE3=Prodigal son
TTITLE4=Lay down gal of mine
TTITLE5=Livin' in the blues
TTITLE6=Avocado green
TTITLE7=Going down slow
TTITLE8=Raised on rock
TTITLE9=Stranger
TTITLE10=38-32-20
TTITLE11=Parchman farm
TTITLE12=Bad news
TTITLE13=Kind hearted woman
TTITLE14=Leavin' blues
TTITLE15=Let the music play
TTITLE16=Look up
TTITLE17=Nothing left
EXTD=CD has no title issued on "Experience" label EXT049\nAll studio recordings
EXTT0=
EXTT1=
EXTT2=
EXTT3=
EXTT4=
EXTT5=
EXTT6=
EXTT7=
EXTT8=
EXTT9=
EXTT10=
EXTT11=
EXTT12=
EXTT13=
EXTT14=
EXTT15=
EXTT16=
EXTT17=
PLAYORDER=
